<svg xmlns="http://www.w3.org/2000/svg" viewBox="0 0 28 28"><linearGradient id="a" x1="868.281" x2="875.406" y1="-445.916" y2="-454.718" gradientTransform="matrix(3.0757 0 0 -3.0757 -2667.455 -1370.944)" gradientUnits="userSpaceOnUse"><stop offset="0"/><stop offset="1"/></linearGradient><path fill="url(#a)" d="M5.917 0h16.165A5.917 5.917 0 0 1 28 5.917v16.165A5.917 5.917 0 0 1 22.083 28H5.917A5.917 5.917 0 0 1 0 22.083V5.917A5.917 5.917 0 0 1 5.917 0z"/><path fill="#fff" d="M18.855 16.5h-7.843l-1-7H7.945v-1h2.934l.286 2h8.891l-1.201 6zm-6.976-1h6.157l.8-4h-7.528l.571 4z"/><path fill="#fff" d="M18.945 19.5H9.136l1.862-3.724.894.448-1.138 2.276h8.191z"/></svg>